<!DOCTYPE svg PUBLIC "-//W3C//DTD SVG 1.1//EN" "http://www.w3.org/Graphics/SVG/1.1/DTD/svg11.dtd">
<!-- Uploaded to: SVG Repo, www.svgrepo.com, Transformed by: SVG Repo Mixer Tools -->
<svg width="800px" height="800px" viewBox="0 0 64 64" xmlns="http://www.w3.org/2000/svg" fill="#000000">
<g id="SVGRepo_bgCarrier" stroke-width="0"/>
<g id="SVGRepo_tracerCarrier" stroke-linecap="round" stroke-linejoin="round"/>
<g id="SVGRepo_iconCarrier"> <g data-name="02_Online Learnning" id="_02_Online_Learnning"> <path d="M8,10H60a2,2,0,0,1,2,2V42a0,0,0,0,1,0,0H6a0,0,0,0,1,0,0V12A2,2,0,0,1,8,10Z" style="fill:#fdfeff"/> <path d="M10,10H8a2,2,0,0,0-2,2V42H8V12A2,2,0,0,1,10,10Z" style="fill:#c3d6dd"/> <path d="M53,36H15a3,3,0,0,1-3-3V8a2,2,0,0,1,2-2H54a2,2,0,0,1,2,2V33A3,3,0,0,1,53,36Z" style="fill:#f0be84"/> <path d="M15.151,33.362A3.011,3.011,0,0,0,17,34a3.077,3.077,0,0,0,.727-.089A32.11,32.11,0,0,1,32.4,33.717l.944.21A2.96,2.96,0,0,0,34,34a2.891,2.891,0,0,0,.65-.072l.951-.211a32.078,32.078,0,0,1,14.672.194,3,3,0,0,0,2.572-.546A2.979,2.979,0,0,0,54,31V6H53V31a1.983,1.983,0,0,1-.77,1.576A2,2,0,0,1,51,33a1.976,1.976,0,0,1-.485-.06,33.087,33.087,0,0,0-15.131-.2l-.95.211A1.957,1.957,0,0,1,34,33a2.02,2.02,0,0,1-.438-.048l-.946-.211a33.124,33.124,0,0,0-15.131.2A2,2,0,0,1,15,31V6H14V31A2.976,2.976,0,0,0,15.151,33.362Z" style="fill:#c3d6dd"/> <path d="M15,31a1.984,1.984,0,0,0,.768,1.575,2,2,0,0,0,1.717.365,33.124,33.124,0,0,1,15.131-.2l.946.211A2.02,2.02,0,0,0,34,33a1.957,1.957,0,0,0,.434-.048l.95-.211a33.087,33.087,0,0,1,15.131.2A1.976,1.976,0,0,0,51,33a2,2,0,0,0,1.23-.424A1.983,1.983,0,0,0,53,31V4H15Z" style="fill:#dfeaef"/> <path d="M51,32a1,1,0,0,1-.243-.03,34.1,34.1,0,0,0-15.59-.2l-.95.211a.993.993,0,0,1-.434,0l-.95-.211a34.113,34.113,0,0,0-15.59.2A1,1,0,0,1,16,31V4a1,1,0,0,1,.757-.97,36.085,36.085,0,0,1,16.51-.217L34,2.976l.733-.163a36.085,36.085,0,0,1,16.51.217A1,1,0,0,1,52,4V31a1,1,0,0,1-1,1Z" style="fill:#fdfeff"/> <rect height="2" style="fill:#d6e8f2" width="11" x="20" y="10"/> <rect height="2" style="fill:#d6e8f2" width="11" x="20" y="14"/> <rect height="2" style="fill:#d6e8f2" width="11" x="20" y="18"/> <rect height="2" style="fill:#d6e8f2" width="11" x="20" y="22"/> <rect height="2" style="fill:#d6e8f2" width="11" x="37" y="10"/> <rect height="2" style="fill:#d6e8f2" width="11" x="37" y="14"/> <rect height="2" style="fill:#d6e8f2" width="11" x="37" y="18"/> <rect height="2" style="fill:#d6e8f2" width="11" x="37" y="22"/> <path d="M40,56H28a1,1,0,0,1-1-1V48a1,1,0,0,1,1-1H40a1,1,0,0,1,1,1v7A1,1,0,0,1,40,56Z" style="fill:#dfeaef"/> <path d="M29,55V48a1,1,0,0,1,1-1H28a1,1,0,0,0-1,1v7a1,1,0,0,0,1,1h2A1,1,0,0,1,29,55Z" style="fill:#c3d6dd"/> <path d="M50,62H18a1,1,0,0,1-1-1,7.008,7.008,0,0,1,7-7H44a7.008,7.008,0,0,1,7,7A1,1,0,0,1,50,62Z" style="fill:#817c83"/> <path d="M19,61a7.008,7.008,0,0,1,7-7H24a7.008,7.008,0,0,0-7,7,1,1,0,0,0,1,1h2A1,1,0,0,1,19,61Z" style="fill:#5a4f5f"/> <path d="M6,42H62a0,0,0,0,1,0,0v4a2,2,0,0,1-2,2H8a2,2,0,0,1-2-2V42A0,0,0,0,1,6,42Z" style="fill:#817c83"/> <path d="M8,46V42H6v4a2,2,0,0,0,2,2h2A2,2,0,0,1,8,46Z" style="fill:#5a4f5f"/> <circle cx="34" cy="45" r="1" style="fill:#febc00"/> </g> </g>
</svg>